<?xml version="1.0" encoding="UTF-8"?><svg enable-background="new 0 0 800 600" version="1.0" viewBox="0 0 800 600" xml:space="preserve" xmlns="http://www.w3.org/2000/svg"><style type="text/css">.st0{fill:#A1D33C;}.st1{fill:#FFFFFF;}.st2{fill:#231F20;}</style><circle class="st0" cx="209.6" cy="299.6" r="119"/><path class="st1" d="m180.3 346.3c-1.9 6.2-4.4 9.7-12.7 9.7-7 0-10.2-2.7-10.2-7 0-1.4 0.3-3 0.8-4.4l28.3-99.4c1.9-6.2 4.4-9.7 12.5-9.7 7.2 0 10.3 2.7 10.3 7 0 1.6-0.5 3-0.9 4.7l-28.1 99.1z"/><path class="st1" d="m234.7 346.3c-1.9 6.2-4.4 9.7-12.7 9.7-7 0-10.2-2.7-10.2-7 0-1.4 0.3-3 0.8-4.4l28.3-99.4c1.9-6.2 4.4-9.7 12.5-9.7 7.2 0 10.3 2.7 10.3 7 0 1.6-0.5 3-0.9 4.7l-28.1 99.1z"/><path class="st2" d="m405 340.8c0 1.6 0 2.7-0.6 3.6s-2.2 1.7-4.1 1.7c-2 0-3.6-0.6-4.2-1.7-0.6-0.9-0.6-2.2-0.6-3.6v-58.1h-19.4c-1.4 0-2.5-0.2-3.6-0.8-0.9-0.6-1.4-1.7-1.4-3.4s0.5-3 1.4-3.6 2.2-0.8 3.6-0.8h48.1c1.4 0 2.5 0.2 3.6 0.8 0.9 0.6 1.4 1.7 1.4 3.4s-0.5 3-1.4 3.6-2.2 0.8-3.6 0.8h-19.2v58.1z"/><path class="st2" d="m486.4 272.4c22.5 0 36.6 15.6 36.6 37.2 0 22-14.4 37.5-36.9 37.5s-36.6-15.6-36.6-37.2c-0.2-22 14.4-37.5 36.9-37.5zm0 66.4c16.2 0 26.7-10.6 26.7-29.1 0-18.6-10.6-29.4-26.9-29.4s-26.7 10.6-26.7 29.1c-0.2 18.8 10.3 29.4 26.9 29.4z"/><path class="st2" d="m596.2 339.1c-8.9 5.8-20.2 7-30 7-6.6 0-12-0.5-14.8-1.4s-3.1-2.3-3.1-5.6v-58.7c0-3.6 0.9-5 5.2-5.9 3.1-0.6 8.6-1.1 14.8-1.1 11.6 0 21.4 1.6 29.1 7 7.7 5.3 13.4 14.5 13.4 28.9-0.2 15.7-7 24.7-14.6 29.8zm-38.3-1.7s3.6 0.5 9.8 0.5c9.7 0 33-1.2 33-28 0-11.1-4.1-18.3-9.7-22.5-5.6-4.4-12.8-5.8-22.5-5.8-6.9 0-10.8 0.8-10.8 0.8l0.2 55z"/><path class="st2" d="m672.6 272.4c22.5 0 36.6 15.6 36.6 37.2 0 22-14.4 37.5-36.9 37.5s-36.6-15.6-36.6-37.2c0-22 14.5-37.5 36.9-37.5zm0 66.4c16.2 0 26.7-10.6 26.7-29.1 0-18.6-10.6-29.4-26.9-29.4s-26.7 10.6-26.7 29.1c0 18.8 10.6 29.4 26.9 29.4z"/></svg>